# Tiled2Unity generated file. Do not modify by hand.
# Wavefront file for 'map5_mesh_0001.obj'

# Vertices (Count = 836)
v -46 -17 0
v -47 -17 0
v -47 -16 0
v -46 -16 0
v -47 -17 0
v -48 -17 0
v -48 -16 0
v -47 -16 0
v -48 -17 0
v -49 -17 0
v -49 -16 0
v -48 -16 0
v -46 -18 0
v -47 -18 0
v -47 -17 0
v -46 -17 0
v -47 -18 0
v -48 -18 0
v -48 -17 0
v -47 -17 0
v -48 -18 0
v -49 -18 0
v -49 -17 0
v -48 -17 0
v -46 -19 0
v -47 -19 0
v -47 -18 0
v -46 -18 0
v -47 -19 0
v -48 -19 0
v -48 -18 0
v -47 -18 0
v -48 -19 0
v -49 -19 0
v -49 -18 0
v -48 -18 0
v -46 -20 0
v -47 -20 0
v -47 -19 0
v -46 -19 0
v -47 -20 0
v -48 -20 0
v -48 -19 0
v -47 -19 0
v -48 -20 0
v -49 -20 0
v -49 -19 0
v -48 -19 0
v -46 -21 0
v -47 -21 0
v -47 -20 0
v -46 -20 0
v -47 -21 0
v -48 -21 0
v -48 -20 0
v -47 -20 0
v -48 -21 0
v -49 -21 0
v -49 -20 0
v -48 -20 0
v -46 -22 0
v -47 -22 0
v -47 -21 0
v -46 -21 0
v -47 -22 0
v -48 -22 0
v -48 -21 0
v -47 -21 0
v -48 -22 0
v -49 -22 0
v -49 -21 0
v -48 -21 0
v -46 -23 0
v -47 -23 0
v -47 -22 0
v -46 -22 0
v -47 -23 0
v -48 -23 0
v -48 -22 0
v -47 -22 0
v -48 -23 0
v -49 -23 0
v -49 -22 0
v -48 -22 0
v -46 -24 0
v -47 -24 0
v -47 -23 0
v -46 -23 0
v -47 -24 0
v -48 -24 0
v -48 -23 0
v -47 -23 0
v -48 -24 0
v -49 -24 0
v -49 -23 0
v -48 -23 0
v -46 -25 0
v -47 -25 0
v -47 -24 0
v -46 -24 0
v -47 -25 0
v -48 -25 0
v -48 -24 0
v -47 -24 0
v -48 -25 0
v -49 -25 0
v -49 -24 0
v -48 -24 0
v -46 -26 0
v -47 -26 0
v -47 -25 0
v -46 -25 0
v -47 -26 0
v -48 -26 0
v -48 -25 0
v -47 -25 0
v -48 -26 0
v -49 -26 0
v -49 -25 0
v -48 -25 0
v -46 -27 0
v -47 -27 0
v -47 -26 0
v -46 -26 0
v -47 -27 0
v -48 -27 0
v -48 -26 0
v -47 -26 0
v -48 -27 0
v -49 -27 0
v -49 -26 0
v -48 -26 0
v -46 -28 0
v -47 -28 0
v -47 -27 0
v -46 -27 0
v -47 -28 0
v -48 -28 0
v -48 -27 0
v -47 -27 0
v -48 -28 0
v -49 -28 0
v -49 -27 0
v -48 -27 0
v -46 -29 0
v -47 -29 0
v -47 -28 0
v -46 -28 0
v -47 -29 0
v -48 -29 0
v -48 -28 0
v -47 -28 0
v -48 -29 0
v -49 -29 0
v -49 -28 0
v -48 -28 0
v -46 -30 0
v -47 -30 0
v -47 -29 0
v -46 -29 0
v -47 -30 0
v -48 -30 0
v -48 -29 0
v -47 -29 0
v -48 -30 0
v -49 -30 0
v -49 -29 0
v -48 -29 0
v -46 -31 0
v -47 -31 0
v -47 -30 0
v -46 -30 0
v -47 -31 0
v -48 -31 0
v -48 -30 0
v -47 -30 0
v -48 -31 0
v -49 -31 0
v -49 -30 0
v -48 -30 0
v -46 -32 0
v -47 -32 0
v -47 -31 0
v -46 -31 0
v -47 -32 0
v -48 -32 0
v -48 -31 0
v -47 -31 0
v -48 -32 0
v -49 -32 0
v -49 -31 0
v -48 -31 0
v -46 -33 0
v -47 -33 0
v -47 -32 0
v -46 -32 0
v -47 -33 0
v -48 -33 0
v -48 -32 0
v -47 -32 0
v -48 -33 0
v -49 -33 0
v -49 -32 0
v -48 -32 0
v -46 -34 0
v -47 -34 0
v -47 -33 0
v -46 -33 0
v -47 -34 0
v -48 -34 0
v -48 -33 0
v -47 -33 0
v -48 -34 0
v -49 -34 0
v -49 -33 0
v -48 -33 0
v -46 -35 0
v -47 -35 0
v -47 -34 0
v -46 -34 0
v -47 -35 0
v -48 -35 0
v -48 -34 0
v -47 -34 0
v -48 -35 0
v -49 -35 0
v -49 -34 0
v -48 -34 0
v -46 -36 0
v -47 -36 0
v -47 -35 0
v -46 -35 0
v -47 -36 0
v -48 -36 0
v -48 -35 0
v -47 -35 0
v -48 -36 0
v -49 -36 0
v -49 -35 0
v -48 -35 0
v -46 -37 0
v -47 -37 0
v -47 -36 0
v -46 -36 0
v -46 -38 0
v -47 -38 0
v -47 -37 0
v -46 -37 0
v -47 -38 0
v -48 -38 0
v -48 -37 0
v -47 -37 0
v -48 -38 0
v -49 -38 0
v -49 -37 0
v -48 -37 0
v -46 -39 0
v -47 -39 0
v -47 -38 0
v -46 -38 0
v -47 -39 0
v -48 -39 0
v -48 -38 0
v -47 -38 0
v -48 -39 0
v -49 -39 0
v -49 -38 0
v -48 -38 0
v -46 -40 0
v -47 -40 0
v -47 -39 0
v -46 -39 0
v -47 -40 0
v -48 -40 0
v -48 -39 0
v -47 -39 0
v -48 -40 0
v -49 -40 0
v -49 -39 0
v -48 -39 0
v -46 -41 0
v -47 -41 0
v -47 -40 0
v -46 -40 0
v -47 -41 0
v -48 -41 0
v -48 -40 0
v -47 -40 0
v -48 -41 0
v -49 -41 0
v -49 -40 0
v -48 -40 0
v -46 -42 0
v -47 -42 0
v -47 -41 0
v -46 -41 0
v -47 -42 0
v -48 -42 0
v -48 -41 0
v -47 -41 0
v -48 -42 0
v -49 -42 0
v -49 -41 0
v -48 -41 0
v -49 -42 0
v -50 -42 0
v -50 -41 0
v -49 -41 0
v -50 -42 0
v -51 -42 0
v -51 -41 0
v -50 -41 0
v -51 -42 0
v -52 -42 0
v -52 -41 0
v -51 -41 0
v -52 -42 0
v -53 -42 0
v -53 -41 0
v -52 -41 0
v -53 -42 0
v -54 -42 0
v -54 -41 0
v -53 -41 0
v -54 -42 0
v -55 -42 0
v -55 -41 0
v -54 -41 0
v -55 -42 0
v -56 -42 0
v -56 -41 0
v -55 -41 0
v -56 -42 0
v -57 -42 0
v -57 -41 0
v -56 -41 0
v -57 -42 0
v -58 -42 0
v -58 -41 0
v -57 -41 0
v -58 -42 0
v -59 -42 0
v -59 -41 0
v -58 -41 0
v -59 -42 0
v -60 -42 0
v -60 -41 0
v -59 -41 0
v -60 -42 0
v -61 -42 0
v -61 -41 0
v -60 -41 0
v -61 -42 0
v -62 -42 0
v -62 -41 0
v -61 -41 0
v -62 -42 0
v -63 -42 0
v -63 -41 0
v -62 -41 0
v -63 -42 0
v -64 -42 0
v -64 -41 0
v -63 -41 0
v -64 -42 0
v -65 -42 0
v -65 -41 0
v -64 -41 0
v -65 -42 0
v -66 -42 0
v -66 -41 0
v -65 -41 0
v -66 -42 0
v -67 -42 0
v -67 -41 0
v -66 -41 0
v -67 -42 0
v -68 -42 0
v -68 -41 0
v -67 -41 0
v -68 -42 0
v -69 -42 0
v -69 -41 0
v -68 -41 0
v -69 -42 0
v -70 -42 0
v -70 -41 0
v -69 -41 0
v -70 -42 0
v -71 -42 0
v -71 -41 0
v -70 -41 0
v -71 -42 0
v -72 -42 0
v -72 -41 0
v -71 -41 0
v -72 -42 0
v -73 -42 0
v -73 -41 0
v -72 -41 0
v -73 -42 0
v -74 -42 0
v -74 -41 0
v -73 -41 0
v -74 -42 0
v -75 -42 0
v -75 -41 0
v -74 -41 0
v -75 -42 0
v -76 -42 0
v -76 -41 0
v -75 -41 0
v -76 -42 0
v -77 -42 0
v -77 -41 0
v -76 -41 0
v -77 -42 0
v -78 -42 0
v -78 -41 0
v -77 -41 0
v -78 -42 0
v -79 -42 0
v -79 -41 0
v -78 -41 0
v -79 -42 0
v -80 -42 0
v -80 -41 0
v -79 -41 0
v -46 -43 0
v -47 -43 0
v -47 -42 0
v -46 -42 0
v -47 -43 0
v -48 -43 0
v -48 -42 0
v -47 -42 0
v -48 -43 0
v -49 -43 0
v -49 -42 0
v -48 -42 0
v -49 -43 0
v -50 -43 0
v -50 -42 0
v -49 -42 0
v -50 -43 0
v -51 -43 0
v -51 -42 0
v -50 -42 0
v -51 -43 0
v -52 -43 0
v -52 -42 0
v -51 -42 0
v -52 -43 0
v -53 -43 0
v -53 -42 0
v -52 -42 0
v -53 -43 0
v -54 -43 0
v -54 -42 0
v -53 -42 0
v -54 -43 0
v -55 -43 0
v -55 -42 0
v -54 -42 0
v -55 -43 0
v -56 -43 0
v -56 -42 0
v -55 -42 0
v -56 -43 0
v -57 -43 0
v -57 -42 0
v -56 -42 0
v -57 -43 0
v -58 -43 0
v -58 -42 0
v -57 -42 0
v -58 -43 0
v -59 -43 0
v -59 -42 0
v -58 -42 0
v -59 -43 0
v -60 -43 0
v -60 -42 0
v -59 -42 0
v -60 -43 0
v -61 -43 0
v -61 -42 0
v -60 -42 0
v -61 -43 0
v -62 -43 0
v -62 -42 0
v -61 -42 0
v -62 -43 0
v -63 -43 0
v -63 -42 0
v -62 -42 0
v -63 -43 0
v -64 -43 0
v -64 -42 0
v -63 -42 0
v -64 -43 0
v -65 -43 0
v -65 -42 0
v -64 -42 0
v -65 -43 0
v -66 -43 0
v -66 -42 0
v -65 -42 0
v -66 -43 0
v -67 -43 0
v -67 -42 0
v -66 -42 0
v -67 -43 0
v -68 -43 0
v -68 -42 0
v -67 -42 0
v -68 -43 0
v -69 -43 0
v -69 -42 0
v -68 -42 0
v -69 -43 0
v -70 -43 0
v -70 -42 0
v -69 -42 0
v -70 -43 0
v -71 -43 0
v -71 -42 0
v -70 -42 0
v -71 -43 0
v -72 -43 0
v -72 -42 0
v -71 -42 0
v -72 -43 0
v -73 -43 0
v -73 -42 0
v -72 -42 0
v -73 -43 0
v -74 -43 0
v -74 -42 0
v -73 -42 0
v -74 -43 0
v -75 -43 0
v -75 -42 0
v -74 -42 0
v -75 -43 0
v -76 -43 0
v -76 -42 0
v -75 -42 0
v -76 -43 0
v -77 -43 0
v -77 -42 0
v -76 -42 0
v -77 -43 0
v -78 -43 0
v -78 -42 0
v -77 -42 0
v -78 -43 0
v -79 -43 0
v -79 -42 0
v -78 -42 0
v -79 -43 0
v -80 -43 0
v -80 -42 0
v -79 -42 0
v -46 -44 0
v -47 -44 0
v -47 -43 0
v -46 -43 0
v -47 -44 0
v -48 -44 0
v -48 -43 0
v -47 -43 0
v -48 -44 0
v -49 -44 0
v -49 -43 0
v -48 -43 0
v -49 -44 0
v -50 -44 0
v -50 -43 0
v -49 -43 0
v -50 -44 0
v -51 -44 0
v -51 -43 0
v -50 -43 0
v -51 -44 0
v -52 -44 0
v -52 -43 0
v -51 -43 0
v -52 -44 0
v -53 -44 0
v -53 -43 0
v -52 -43 0
v -53 -44 0
v -54 -44 0
v -54 -43 0
v -53 -43 0
v -54 -44 0
v -55 -44 0
v -55 -43 0
v -54 -43 0
v -55 -44 0
v -56 -44 0
v -56 -43 0
v -55 -43 0
v -56 -44 0
v -57 -44 0
v -57 -43 0
v -56 -43 0
v -57 -44 0
v -58 -44 0
v -58 -43 0
v -57 -43 0
v -58 -44 0
v -59 -44 0
v -59 -43 0
v -58 -43 0
v -59 -44 0
v -60 -44 0
v -60 -43 0
v -59 -43 0
v -60 -44 0
v -61 -44 0
v -61 -43 0
v -60 -43 0
v -61 -44 0
v -62 -44 0
v -62 -43 0
v -61 -43 0
v -62 -44 0
v -63 -44 0
v -63 -43 0
v -62 -43 0
v -63 -44 0
v -64 -44 0
v -64 -43 0
v -63 -43 0
v -64 -44 0
v -65 -44 0
v -65 -43 0
v -64 -43 0
v -65 -44 0
v -66 -44 0
v -66 -43 0
v -65 -43 0
v -66 -44 0
v -67 -44 0
v -67 -43 0
v -66 -43 0
v -67 -44 0
v -68 -44 0
v -68 -43 0
v -67 -43 0
v -68 -44 0
v -69 -44 0
v -69 -43 0
v -68 -43 0
v -69 -44 0
v -70 -44 0
v -70 -43 0
v -69 -43 0
v -70 -44 0
v -71 -44 0
v -71 -43 0
v -70 -43 0
v -71 -44 0
v -72 -44 0
v -72 -43 0
v -71 -43 0
v -72 -44 0
v -73 -44 0
v -73 -43 0
v -72 -43 0
v -73 -44 0
v -74 -44 0
v -74 -43 0
v -73 -43 0
v -74 -44 0
v -75 -44 0
v -75 -43 0
v -74 -43 0
v -75 -44 0
v -76 -44 0
v -76 -43 0
v -75 -43 0
v -76 -44 0
v -77 -44 0
v -77 -43 0
v -76 -43 0
v -77 -44 0
v -78 -44 0
v -78 -43 0
v -77 -43 0
v -78 -44 0
v -79 -44 0
v -79 -43 0
v -78 -43 0
v -79 -44 0
v -80 -44 0
v -80 -43 0
v -79 -43 0
v -46 -45 0
v -47 -45 0
v -47 -44 0
v -46 -44 0
v -47 -45 0
v -48 -45 0
v -48 -44 0
v -47 -44 0
v -48 -45 0
v -49 -45 0
v -49 -44 0
v -48 -44 0
v -49 -45 0
v -50 -45 0
v -50 -44 0
v -49 -44 0
v -50 -45 0
v -51 -45 0
v -51 -44 0
v -50 -44 0
v -51 -45 0
v -52 -45 0
v -52 -44 0
v -51 -44 0
v -52 -45 0
v -53 -45 0
v -53 -44 0
v -52 -44 0
v -53 -45 0
v -54 -45 0
v -54 -44 0
v -53 -44 0
v -54 -45 0
v -55 -45 0
v -55 -44 0
v -54 -44 0
v -55 -45 0
v -56 -45 0
v -56 -44 0
v -55 -44 0
v -56 -45 0
v -57 -45 0
v -57 -44 0
v -56 -44 0
v -57 -45 0
v -58 -45 0
v -58 -44 0
v -57 -44 0
v -58 -45 0
v -59 -45 0
v -59 -44 0
v -58 -44 0
v -59 -45 0
v -60 -45 0
v -60 -44 0
v -59 -44 0
v -60 -45 0
v -61 -45 0
v -61 -44 0
v -60 -44 0
v -61 -45 0
v -62 -45 0
v -62 -44 0
v -61 -44 0
v -62 -45 0
v -63 -45 0
v -63 -44 0
v -62 -44 0
v -63 -45 0
v -64 -45 0
v -64 -44 0
v -63 -44 0
v -64 -45 0
v -65 -45 0
v -65 -44 0
v -64 -44 0
v -65 -45 0
v -66 -45 0
v -66 -44 0
v -65 -44 0
v -66 -45 0
v -67 -45 0
v -67 -44 0
v -66 -44 0
v -67 -45 0
v -68 -45 0
v -68 -44 0
v -67 -44 0
v -68 -45 0
v -69 -45 0
v -69 -44 0
v -68 -44 0
v -69 -45 0
v -70 -45 0
v -70 -44 0
v -69 -44 0
v -70 -45 0
v -71 -45 0
v -71 -44 0
v -70 -44 0
v -71 -45 0
v -72 -45 0
v -72 -44 0
v -71 -44 0
v -72 -45 0
v -73 -45 0
v -73 -44 0
v -72 -44 0
v -73 -45 0
v -74 -45 0
v -74 -44 0
v -73 -44 0
v -74 -45 0
v -75 -45 0
v -75 -44 0
v -74 -44 0
v -75 -45 0
v -76 -45 0
v -76 -44 0
v -75 -44 0
v -76 -45 0
v -77 -45 0
v -77 -44 0
v -76 -44 0
v -77 -45 0
v -78 -45 0
v -78 -44 0
v -77 -44 0
v -78 -45 0
v -79 -45 0
v -79 -44 0
v -78 -44 0
v -79 -45 0
v -80 -45 0
v -80 -44 0
v -79 -44 0

# Texture cooridinates (Count = 24)
vt 0 0.8333333
vt 0.3333333 0.8333333
vt 0.3333333 1
vt 0 1
vt 0.6666667 0.8333333
vt 0.6666667 1
vt 1 0.8333333
vt 1 1
vt 0 0.6666666
vt 0.3333333 0.6666666
vt 0.6666667 0.6666666
vt 1 0.6666666
vt 0.6666667 0.1666667
vt 1 0.1666667
vt 1 0.3333333
vt 0.6666667 0.3333333
vt 1 0.5
vt 0.6666667 0.5
vt 0 0.1666667
vt 0.3333333 0.1666667
vt 0.3333333 0.3333333
vt 0 0.3333333
vt 0 0.5
vt 0.3333333 0.5

# Normal
vn 0 0 -1

# Mesh description
g map5_mesh_0001

# Faces
f 1/1/1 2/2/1 3/3/1 4/4/1
f 5/2/1 6/5/1 7/6/1 8/3/1
f 9/5/1 10/7/1 11/8/1 12/6/1
f 13/9/1 14/10/1 15/2/1 16/1/1
f 17/10/1 18/11/1 19/5/1 20/2/1
f 21/11/1 22/12/1 23/7/1 24/5/1
f 25/9/1 26/10/1 27/2/1 28/1/1
f 29/10/1 30/11/1 31/5/1 32/2/1
f 33/11/1 34/12/1 35/7/1 36/5/1
f 37/9/1 38/10/1 39/2/1 40/1/1
f 41/10/1 42/11/1 43/5/1 44/2/1
f 45/11/1 46/12/1 47/7/1 48/5/1
f 49/9/1 50/10/1 51/2/1 52/1/1
f 53/13/1 54/14/1 55/15/1 56/16/1
f 57/11/1 58/12/1 59/7/1 60/5/1
f 61/9/1 62/10/1 63/2/1 64/1/1
f 65/13/1 66/14/1 67/15/1 68/16/1
f 69/11/1 70/12/1 71/7/1 72/5/1
f 73/9/1 74/10/1 75/2/1 76/1/1
f 77/13/1 78/14/1 79/15/1 80/16/1
f 81/11/1 82/12/1 83/7/1 84/5/1
f 85/9/1 86/10/1 87/2/1 88/1/1
f 89/10/1 90/11/1 91/5/1 92/2/1
f 93/11/1 94/12/1 95/7/1 96/5/1
f 97/9/1 98/10/1 99/2/1 100/1/1
f 101/10/1 102/11/1 103/5/1 104/2/1
f 105/11/1 106/12/1 107/7/1 108/5/1
f 109/9/1 110/10/1 111/2/1 112/1/1
f 113/10/1 114/11/1 115/5/1 116/2/1
f 117/11/1 118/12/1 119/7/1 120/5/1
f 121/9/1 122/10/1 123/2/1 124/1/1
f 125/16/1 126/15/1 127/17/1 128/18/1
f 129/11/1 130/12/1 131/7/1 132/5/1
f 133/9/1 134/10/1 135/2/1 136/1/1
f 137/13/1 138/14/1 139/15/1 140/16/1
f 141/11/1 142/12/1 143/7/1 144/5/1
f 145/9/1 146/10/1 147/2/1 148/1/1
f 149/16/1 150/15/1 151/17/1 152/18/1
f 153/11/1 154/12/1 155/7/1 156/5/1
f 157/9/1 158/10/1 159/2/1 160/1/1
f 161/10/1 162/11/1 163/5/1 164/2/1
f 165/11/1 166/12/1 167/7/1 168/5/1
f 169/9/1 170/10/1 171/2/1 172/1/1
f 173/13/1 174/14/1 175/15/1 176/16/1
f 177/11/1 178/12/1 179/7/1 180/5/1
f 181/9/1 182/10/1 183/2/1 184/1/1
f 185/10/1 186/11/1 187/5/1 188/2/1
f 189/11/1 190/12/1 191/7/1 192/5/1
f 193/9/1 194/10/1 195/2/1 196/1/1
f 197/16/1 198/15/1 199/17/1 200/18/1
f 201/11/1 202/12/1 203/7/1 204/5/1
f 205/9/1 206/10/1 207/2/1 208/1/1
f 209/10/1 210/11/1 211/5/1 212/2/1
f 213/11/1 214/12/1 215/7/1 216/5/1
f 217/9/1 218/10/1 219/2/1 220/1/1
f 221/10/1 222/11/1 223/5/1 224/2/1
f 225/11/1 226/12/1 227/7/1 228/5/1
f 229/9/1 230/10/1 231/2/1 232/1/1
f 233/13/1 234/14/1 235/15/1 236/16/1
f 237/11/1 238/12/1 239/7/1 240/5/1
f 241/9/1 242/10/1 243/2/1 244/1/1
f 245/9/1 246/10/1 247/2/1 248/1/1
f 249/13/1 250/14/1 251/15/1 252/16/1
f 253/11/1 254/12/1 255/7/1 256/5/1
f 257/9/1 258/10/1 259/2/1 260/1/1
f 261/13/1 262/14/1 263/15/1 264/16/1
f 265/11/1 266/12/1 267/7/1 268/5/1
f 269/9/1 270/10/1 271/2/1 272/1/1
f 273/16/1 274/15/1 275/17/1 276/18/1
f 277/11/1 278/12/1 279/7/1 280/5/1
f 281/9/1 282/10/1 283/2/1 284/1/1
f 285/16/1 286/15/1 287/17/1 288/18/1
f 289/11/1 290/12/1 291/7/1 292/5/1
f 293/9/1 294/10/1 295/2/1 296/1/1
f 297/16/1 298/15/1 299/17/1 300/18/1
f 301/19/1 302/20/1 303/21/1 304/22/1
f 305/2/1 306/5/1 307/6/1 308/3/1
f 309/2/1 310/5/1 311/6/1 312/3/1
f 313/2/1 314/5/1 315/6/1 316/3/1
f 317/2/1 318/5/1 319/6/1 320/3/1
f 321/2/1 322/5/1 323/6/1 324/3/1
f 325/2/1 326/5/1 327/6/1 328/3/1
f 329/2/1 330/5/1 331/6/1 332/3/1
f 333/2/1 334/5/1 335/6/1 336/3/1
f 337/2/1 338/5/1 339/6/1 340/3/1
f 341/2/1 342/5/1 343/6/1 344/3/1
f 345/2/1 346/5/1 347/6/1 348/3/1
f 349/2/1 350/5/1 351/6/1 352/3/1
f 353/2/1 354/5/1 355/6/1 356/3/1
f 357/2/1 358/5/1 359/6/1 360/3/1
f 361/2/1 362/5/1 363/6/1 364/3/1
f 365/2/1 366/5/1 367/6/1 368/3/1
f 369/2/1 370/5/1 371/6/1 372/3/1
f 373/2/1 374/5/1 375/6/1 376/3/1
f 377/2/1 378/5/1 379/6/1 380/3/1
f 381/2/1 382/5/1 383/6/1 384/3/1
f 385/2/1 386/5/1 387/6/1 388/3/1
f 389/2/1 390/5/1 391/6/1 392/3/1
f 393/2/1 394/5/1 395/6/1 396/3/1
f 397/2/1 398/5/1 399/6/1 400/3/1
f 401/2/1 402/5/1 403/6/1 404/3/1
f 405/2/1 406/5/1 407/6/1 408/3/1
f 409/2/1 410/5/1 411/6/1 412/3/1
f 413/2/1 414/5/1 415/6/1 416/3/1
f 417/2/1 418/5/1 419/6/1 420/3/1
f 421/2/1 422/5/1 423/6/1 424/3/1
f 425/5/1 426/7/1 427/8/1 428/6/1
f 429/9/1 430/10/1 431/2/1 432/1/1
f 433/10/1 434/11/1 435/5/1 436/2/1
f 437/16/1 438/15/1 439/17/1 440/18/1
f 441/13/1 442/14/1 443/15/1 444/16/1
f 445/13/1 446/14/1 447/15/1 448/16/1
f 449/16/1 450/15/1 451/17/1 452/18/1
f 453/16/1 454/15/1 455/17/1 456/18/1
f 457/13/1 458/14/1 459/15/1 460/16/1
f 461/10/1 462/11/1 463/5/1 464/2/1
f 465/16/1 466/15/1 467/17/1 468/18/1
f 469/16/1 470/15/1 471/17/1 472/18/1
f 473/13/1 474/14/1 475/15/1 476/16/1
f 477/16/1 478/15/1 479/17/1 480/18/1
f 481/13/1 482/14/1 483/15/1 484/16/1
f 485/10/1 486/11/1 487/5/1 488/2/1
f 489/13/1 490/14/1 491/15/1 492/16/1
f 493/13/1 494/14/1 495/15/1 496/16/1
f 497/13/1 498/14/1 499/15/1 500/16/1
f 501/16/1 502/15/1 503/17/1 504/18/1
f 505/13/1 506/14/1 507/15/1 508/16/1
f 509/10/1 510/11/1 511/5/1 512/2/1
f 513/13/1 514/14/1 515/15/1 516/16/1
f 517/13/1 518/14/1 519/15/1 520/16/1
f 521/13/1 522/14/1 523/15/1 524/16/1
f 525/13/1 526/14/1 527/15/1 528/16/1
f 529/13/1 530/14/1 531/15/1 532/16/1
f 533/16/1 534/15/1 535/17/1 536/18/1
f 537/16/1 538/15/1 539/17/1 540/18/1
f 541/16/1 542/15/1 543/17/1 544/18/1
f 545/13/1 546/14/1 547/15/1 548/16/1
f 549/13/1 550/14/1 551/15/1 552/16/1
f 553/13/1 554/14/1 555/15/1 556/16/1
f 557/13/1 558/14/1 559/15/1 560/16/1
f 561/11/1 562/12/1 563/7/1 564/5/1
f 565/9/1 566/10/1 567/2/1 568/1/1
f 569/13/1 570/14/1 571/15/1 572/16/1
f 573/13/1 574/14/1 575/15/1 576/16/1
f 577/16/1 578/15/1 579/17/1 580/18/1
f 581/10/1 582/11/1 583/5/1 584/2/1
f 585/10/1 586/11/1 587/5/1 588/2/1
f 589/10/1 590/11/1 591/5/1 592/2/1
f 593/16/1 594/15/1 595/17/1 596/18/1
f 597/13/1 598/14/1 599/15/1 600/16/1
f 601/13/1 602/14/1 603/15/1 604/16/1
f 605/16/1 606/15/1 607/17/1 608/18/1
f 609/10/1 610/11/1 611/5/1 612/2/1
f 613/13/1 614/14/1 615/15/1 616/16/1
f 617/16/1 618/15/1 619/17/1 620/18/1
f 621/13/1 622/14/1 623/15/1 624/16/1
f 625/10/1 626/11/1 627/5/1 628/2/1
f 629/16/1 630/15/1 631/17/1 632/18/1
f 633/16/1 634/15/1 635/17/1 636/18/1
f 637/16/1 638/15/1 639/17/1 640/18/1
f 641/16/1 642/15/1 643/17/1 644/18/1
f 645/13/1 646/14/1 647/15/1 648/16/1
f 649/10/1 650/11/1 651/5/1 652/2/1
f 653/16/1 654/15/1 655/17/1 656/18/1
f 657/10/1 658/11/1 659/5/1 660/2/1
f 661/13/1 662/14/1 663/15/1 664/16/1
f 665/10/1 666/11/1 667/5/1 668/2/1
f 669/10/1 670/11/1 671/5/1 672/2/1
f 673/10/1 674/11/1 675/5/1 676/2/1
f 677/13/1 678/14/1 679/15/1 680/16/1
f 681/13/1 682/14/1 683/15/1 684/16/1
f 685/13/1 686/14/1 687/15/1 688/16/1
f 689/16/1 690/15/1 691/17/1 692/18/1
f 693/16/1 694/15/1 695/17/1 696/18/1
f 697/11/1 698/12/1 699/7/1 700/5/1
f 701/23/1 702/24/1 703/10/1 704/9/1
f 705/24/1 706/18/1 707/11/1 708/10/1
f 709/24/1 710/18/1 711/11/1 712/10/1
f 713/24/1 714/18/1 715/11/1 716/10/1
f 717/24/1 718/18/1 719/11/1 720/10/1
f 721/24/1 722/18/1 723/11/1 724/10/1
f 725/24/1 726/18/1 727/11/1 728/10/1
f 729/24/1 730/18/1 731/11/1 732/10/1
f 733/24/1 734/18/1 735/11/1 736/10/1
f 737/24/1 738/18/1 739/11/1 740/10/1
f 741/24/1 742/18/1 743/11/1 744/10/1
f 745/24/1 746/18/1 747/11/1 748/10/1
f 749/24/1 750/18/1 751/11/1 752/10/1
f 753/24/1 754/18/1 755/11/1 756/10/1
f 757/24/1 758/18/1 759/11/1 760/10/1
f 761/24/1 762/18/1 763/11/1 764/10/1
f 765/24/1 766/18/1 767/11/1 768/10/1
f 769/24/1 770/18/1 771/11/1 772/10/1
f 773/24/1 774/18/1 775/11/1 776/10/1
f 777/24/1 778/18/1 779/11/1 780/10/1
f 781/24/1 782/18/1 783/11/1 784/10/1
f 785/24/1 786/18/1 787/11/1 788/10/1
f 789/24/1 790/18/1 791/11/1 792/10/1
f 793/24/1 794/18/1 795/11/1 796/10/1
f 797/24/1 798/18/1 799/11/1 800/10/1
f 801/24/1 802/18/1 803/11/1 804/10/1
f 805/24/1 806/18/1 807/11/1 808/10/1
f 809/24/1 810/18/1 811/11/1 812/10/1
f 813/24/1 814/18/1 815/11/1 816/10/1
f 817/24/1 818/18/1 819/11/1 820/10/1
f 821/24/1 822/18/1 823/11/1 824/10/1
f 825/24/1 826/18/1 827/11/1 828/10/1
f 829/24/1 830/18/1 831/11/1 832/10/1
f 833/18/1 834/17/1 835/12/1 836/11/1

